{"glyphs":{"0":{"ha":1224,"x_min":57,"x_max":1168,"o":"m 847 667 l 847 332 l 499 332 l 499 444 l 621 444 l 621 556 l 743 556 l 743 667 l 847 667 m 1168 1111 l 1168 0 l 57 0 l 57 1111 l 1168 1111 m 969 779 l 847 779 l 847 867 l 847 901 l 376 901 l 376 779 l 254 779 l 254 332 l 376 332 l 376 210 l 847 210 l 847 332 l 969 332 l 969 779 m 376 444 l 376 779 l 743 779 l 743 779 l 743 667 l 621 667 l 621 556 l 499 556 l 499 444 l 376 444 z "},"1":{"ha":1224,"x_min":57,"x_max":1168,"o":"m 57 1111 l 1168 1111 l 1168 0 l 57 0 l 57 1111 m 464 210 l 810 210 l 810 332 l 699 332 l 699 779 l 576 779 l 576 901 l 464 901 l 464 779 l 576 779 l 576 332 l 464 332 l 464 210 z "},"2":{"ha":1224,"x_min":57,"x_max":1168,"o":"m 57 1111 l 1168 1111 l 1168 0 l 57 0 l 57 1111 m 339 779 l 808 779 l 808 901 l 339 901 l 339 779 m 339 210 l 931 210 l 931 332 l 463 332 l 463 540 l 808 540 l 808 664 l 931 664 l 931 779 l 808 779 l 808 664 l 463 664 l 463 540 l 339 540 l 339 210 z "},"3":{"ha":1224,"x_min":57,"x_max":1168,"o":"m 57 1111 l 1168 1111 l 1168 0 l 57 0 l 57 1111 m 425 210 l 771 210 l 771 332 l 893 332 l 893 779 l 771 779 l 771 901 l 425 901 l 425 779 l 771 779 l 771 664 l 425 664 l 425 540 l 771 540 l 771 332 l 425 332 l 425 210 z "},"4":{"ha":1224,"x_min":57,"x_max":1168,"o":"m 458 664 l 458 779 l 689 779 l 689 664 l 458 664 m 1168 1111 l 1168 0 l 57 0 l 57 1111 l 1168 1111 m 919 664 l 813 664 l 813 779 l 689 779 l 689 901 l 458 901 l 458 779 l 343 779 l 343 540 l 689 540 l 689 210 l 813 210 l 813 549 l 919 549 l 919 664 z "},"5":{"ha":1224,"x_min":57,"x_max":1168,"o":"m 392 549 l 392 549 l 392 549 m 57 1111 l 1168 1111 l 1168 0 l 57 0 l 57 1111 m 344 671 l 467 671 l 467 549 l 813 549 l 813 549 l 813 332 l 936 332 l 936 549 l 813 549 l 813 549 l 813 671 l 467 671 l 467 779 l 936 779 l 936 901 l 344 901 l 344 671 m 344 210 l 813 210 l 813 332 l 344 332 l 344 210 z "},"6":{"ha":1224,"x_min":57,"x_max":1168,"o":"m 57 1111 l 1168 1111 l 1168 0 l 57 0 l 57 1111 m 404 332 l 526 332 l 526 556 l 753 556 l 753 332 l 528 332 l 528 210 l 753 210 l 753 332 l 874 332 l 874 678 l 526 678 l 526 901 l 404 901 l 404 332 z "},"7":{"ha":1224,"x_min":57,"x_max":1168,"o":"m 57 1111 l 1168 1111 l 1168 0 l 57 0 l 57 1111 m 378 779 l 724 779 l 724 210 l 846 210 l 846 779 l 724 779 l 724 901 l 378 901 l 378 779 z "},"8":{"ha":1224,"x_min":57,"x_max":1168,"o":"m 785 543 l 785 335 l 439 335 l 439 543 l 785 543 m 439 665 l 439 781 l 785 781 l 785 665 l 439 665 m 1168 1114 l 1168 3 l 57 3 l 57 1114 l 1168 1114 m 907 781 l 785 781 l 785 904 l 439 904 l 439 781 l 317 781 l 317 335 l 439 335 l 439 213 l 785 213 l 785 335 l 907 335 l 907 781 z "},"9":{"ha":1224,"x_min":57,"x_max":1168,"o":"m 1168 1111 l 1168 0 l 57 0 l 57 1111 l 1168 1111 m 846 779 l 724 779 l 724 664 l 497 664 l 497 779 l 724 779 l 724 901 l 497 901 l 497 779 l 378 779 l 378 540 l 724 540 l 724 210 l 846 210 l 846 779 z "},"\u0000":{"ha":0,"x_min":0,"x_max":0,"o":""},"\r":{"ha":0,"x_min":0,"x_max":0,"o":""}," ":{"ha":558,"x_min":0,"x_max":0,"o":""},"!":{"ha":224,"x_min":50,"x_max":174,"o":"m 50 231 l 174 231 l 174 351 l 50 351 l 50 231 m 174 457 l 50 457 l 50 914 l 174 914 l 174 457 z "},"\"":{"ha":568,"x_min":49,"x_max":510,"o":"m 49 803 l 171 803 l 171 689 l 49 689 l 49 803 m 281 925 l 281 803 l 171 803 l 171 925 l 281 925 m 279 803 l 400 803 l 400 689 l 279 689 l 279 803 m 510 925 l 510 803 l 400 803 l 400 925 l 510 925 z "},"#":{"ha":678,"x_min":53,"x_max":626,"o":"m 515 561 l 515 497 l 626 497 l 626 376 l 515 376 l 515 199 l 394 199 l 394 376 l 285 376 l 285 199 l 163 199 l 163 376 l 53 376 l 53 497 l 163 497 l 163 561 l 53 561 l 53 683 l 163 683 l 163 881 l 285 881 l 285 683 l 394 683 l 394 881 l 515 881 l 515 683 l 626 683 l 626 561 l 515 561 m 394 561 l 285 561 l 285 497 l 394 497 l 394 561 z "},"$":{"ha":708,"x_min":56,"x_max":640,"o":"m 404 786 l 404 672 l 518 672 l 518 551 l 640 551 l 640 346 l 518 346 l 518 225 l 404 225 l 404 113 l 294 113 l 294 225 l 56 225 l 56 346 l 294 346 l 294 551 l 176 551 l 176 672 l 56 672 l 56 786 l 176 786 l 176 672 l 294 672 l 294 786 l 178 786 l 178 907 l 294 907 l 294 1019 l 404 1019 l 404 907 l 640 907 l 640 786 l 404 786 m 404 551 l 404 346 l 518 346 l 518 551 l 404 551 z "},"%":{"ha":1085,"x_min":56,"x_max":1021,"o":"m 475 318 l 475 196 l 364 196 l 364 318 l 475 318 m 475 761 l 596 761 l 596 318 l 475 318 l 475 761 m 706 883 l 706 761 l 596 761 l 596 883 l 706 883 m 899 431 l 765 431 l 765 553 l 899 553 l 899 431 m 1021 318 l 899 318 l 899 431 l 1021 431 l 1021 318 m 900 196 l 765 196 l 765 318 l 900 318 l 900 196 m 765 318 l 647 318 l 647 431 l 765 431 l 765 318 m 308 761 l 174 761 l 174 883 l 308 883 l 308 761 m 429 649 l 308 649 l 308 761 l 429 761 l 429 649 m 308 526 l 174 526 l 174 649 l 308 649 l 308 526 m 174 649 l 56 649 l 56 761 l 174 761 l 174 649 z "},"&":{"ha":829,"x_min":56,"x_max":758,"o":"m 639 535 l 639 329 l 758 329 l 758 208 l 56 208 l 56 535 l 176 535 l 176 329 l 518 329 l 518 535 l 176 535 l 176 769 l 294 769 l 294 656 l 518 656 l 518 769 l 639 769 l 639 656 l 758 656 l 758 535 l 639 535 m 518 769 l 294 769 l 294 890 l 518 890 l 518 769 z "},"'":{"ha":349,"x_min":56,"x_max":288,"o":"m 167 1119 l 167 999 l 56 999 l 56 1119 l 167 1119 m 288 885 l 167 885 l 167 999 l 288 999 l 288 885 z "},"(":{"ha":343,"x_min":54,"x_max":286,"o":"m 286 186 l 286 65 l 175 65 l 175 186 l 286 186 m 54 829 l 175 829 l 175 186 l 54 186 l 54 829 m 286 950 l 286 829 l 175 829 l 175 950 l 286 950 z "},")":{"ha":358,"x_min":64,"x_max":294,"o":"m 174 999 l 174 878 l 64 878 l 64 999 l 174 999 m 294 233 l 174 233 l 174 878 l 294 878 l 294 233 m 174 113 l 64 113 l 64 233 l 174 233 l 174 113 z "},"*":{"ha":678,"x_min":50,"x_max":611,"o":"m 160 456 l 50 456 l 50 586 l 160 586 l 160 456 l 269 456 l 269 333 l 160 333 l 160 456 m 501 463 l 501 588 l 611 588 l 611 463 l 501 463 m 269 586 l 160 586 l 160 707 l 269 707 l 269 588 l 390 588 l 390 588 l 390 457 l 501 457 l 501 336 l 390 336 l 390 456 l 269 456 l 269 456 l 269 586 m 501 336 l 611 336 l 611 214 l 501 214 l 501 336 m 160 213 l 50 213 l 50 333 l 160 333 l 160 213 m 160 707 l 50 707 l 50 829 l 160 829 l 160 707 m 501 588 l 390 588 l 390 710 l 501 710 l 501 588 m 611 710 l 501 710 l 501 831 l 611 831 l 611 710 z "},"+":{"ha":725,"x_min":71,"x_max":654,"o":"m 424 582 l 301 582 l 301 696 l 424 696 l 424 582 m 301 461 l 424 461 l 424 256 l 301 256 l 301 461 m 301 461 l 71 461 l 71 582 l 301 582 l 301 461 m 424 461 l 424 582 l 654 582 l 654 461 l 424 461 z "},",":{"ha":349,"x_min":58,"x_max":290,"o":"m 290 196 l 179 196 l 179 317 l 290 317 l 290 196 m 179 82 l 58 82 l 58 196 l 179 196 l 179 82 z "},"-":{"ha":479,"x_min":68,"x_max":411,"o":"m 411 475 l 68 475 l 68 597 l 411 597 l 411 475 z "},".":{"ha":239,"x_min":64,"x_max":175,"o":"m 175 199 l 64 199 l 64 319 l 175 319 l 175 199 z "},"/":{"ha":489,"x_min":74,"x_max":415,"o":"m 415 860 l 306 860 l 306 981 l 415 981 l 415 860 m 306 213 l 183 213 l 183 860 l 306 860 l 306 213 m 183 92 l 74 92 l 74 213 l 183 213 l 183 92 z "},":":{"ha":239,"x_min":64,"x_max":175,"o":"m 175 433 l 64 433 l 64 556 l 175 556 l 175 433 m 175 250 l 64 250 l 64 371 l 175 371 l 175 250 z "},";":{"ha":385,"x_min":63,"x_max":294,"o":"m 294 438 l 185 438 l 185 558 l 294 558 l 294 438 m 294 253 l 185 253 l 185 374 l 294 374 l 294 253 m 185 139 l 63 139 l 63 253 l 185 253 l 185 139 z "},"<":{"ha":526,"x_min":75,"x_max":451,"o":"m 208 472 l 75 472 l 75 594 l 207 594 l 207 704 l 328 704 l 328 594 l 208 594 l 208 472 m 449 704 l 328 704 l 328 814 l 449 814 l 449 704 m 208 363 l 208 472 l 329 472 l 329 363 l 208 363 m 329 363 l 451 363 l 451 253 l 329 253 l 329 363 z "},"=":{"ha":500,"x_min":79,"x_max":421,"o":"m 421 342 l 79 342 l 79 463 l 421 463 l 421 342 m 421 576 l 79 576 l 79 697 l 421 697 l 421 576 z "},">":{"ha":531,"x_min":78,"x_max":453,"o":"m 321 460 l 321 581 l 453 581 l 453 460 l 322 460 l 322 349 l 201 349 l 201 460 l 321 460 m 79 349 l 201 349 l 201 239 l 79 239 l 79 349 m 321 581 l 199 581 l 199 690 l 321 690 l 321 581 m 199 690 l 78 690 l 78 801 l 199 801 l 199 690 z "},"?":{"ha":610,"x_min":74,"x_max":536,"o":"m 415 639 l 415 753 l 536 753 l 536 517 l 383 517 l 383 406 l 251 406 l 251 639 l 415 639 m 251 311 l 383 311 l 383 190 l 251 190 l 251 311 m 415 753 l 74 753 l 74 874 l 415 874 l 415 753 z "},"@":{"ha":835,"x_min":64,"x_max":771,"o":"m 650 697 l 650 768 l 771 768 l 771 397 l 253 397 l 253 697 l 650 697 m 650 576 l 374 576 l 374 518 l 650 518 l 650 576 m 185 326 l 64 326 l 64 768 l 185 768 l 185 326 m 185 206 l 185 326 l 650 326 l 650 206 l 185 206 m 650 768 l 185 768 l 185 889 l 650 889 l 650 768 z "},"A":{"ha":1224,"x_min":57,"x_max":1168,"o":"m 1168 1111 l 1168 0 l 57 0 l 57 1111 l 1168 1111 m 439 775 l 785 775 l 785 897 l 439 897 l 439 775 m 910 775 l 786 775 l 786 660 l 439 660 l 439 775 l 315 775 l 315 206 l 439 206 l 439 536 l 786 536 l 786 206 l 910 206 l 910 775 z "},"B":{"ha":1224,"x_min":57,"x_max":1168,"o":"m 789 536 l 789 328 l 443 328 l 443 536 l 789 536 m 443 774 l 789 774 l 789 660 l 443 660 l 443 774 m 1168 1111 l 1168 0 l 57 0 l 57 1111 l 1168 1111 m 911 774 l 789 774 l 789 897 l 443 897 l 435 897 l 321 897 l 321 206 l 429 206 l 443 206 l 789 206 l 789 328 l 911 328 l 911 536 l 789 536 l 789 660 l 911 660 l 911 774 z "},"C":{"ha":1224,"x_min":57,"x_max":1168,"o":"m 1168 1111 l 1168 0 l 57 0 l 57 1111 l 1168 1111 m 846 897 l 500 897 l 500 774 l 378 774 l 378 328 l 500 328 l 500 206 l 846 206 l 846 328 l 500 328 l 500 774 l 846 774 l 846 897 z "},"D":{"ha":1224,"x_min":57,"x_max":1168,"o":"m 1168 1111 l 1168 0 l 57 0 l 57 1111 l 1168 1111 m 908 774 l 785 774 l 785 896 l 438 896 l 411 896 l 314 896 l 314 206 l 425 206 l 438 206 l 785 206 l 785 328 l 908 328 l 908 774 m 785 774 l 785 328 l 438 328 l 438 774 l 785 774 z "},"E":{"ha":1224,"x_min":57,"x_max":1168,"o":"m 1168 1111 l 1168 0 l 57 0 l 57 1111 l 1168 1111 m 836 896 l 490 896 l 490 774 l 367 774 l 367 328 l 490 328 l 490 206 l 836 206 l 836 328 l 490 328 l 490 536 l 836 536 l 836 658 l 490 658 l 490 774 l 836 774 l 836 896 z "},"F":{"ha":1224,"x_min":57,"x_max":1168,"o":"m 1168 1111 l 1168 0 l 57 0 l 57 1111 l 1168 1111 m 838 658 l 492 658 l 492 774 l 368 774 l 368 206 l 492 206 l 492 536 l 838 536 l 838 658 m 838 896 l 492 896 l 492 774 l 838 774 l 838 896 z "},"G":{"ha":1224,"x_min":57,"x_max":1168,"o":"m 1168 1111 l 1168 0 l 57 0 l 57 1111 l 1168 1111 m 904 533 l 843 533 l 782 533 l 524 533 l 524 410 l 782 410 l 782 325 l 436 325 l 436 771 l 314 771 l 314 325 l 436 325 l 436 201 l 782 201 l 782 325 l 904 325 l 904 533 m 904 771 l 782 771 l 782 893 l 436 893 l 436 771 l 782 771 l 782 656 l 904 656 l 904 771 z "},"H":{"ha":1224,"x_min":57,"x_max":1168,"o":"m 1168 1111 l 1168 0 l 57 0 l 57 1111 l 1168 1111 m 908 896 l 786 896 l 786 657 l 438 657 l 438 896 l 315 896 l 315 204 l 438 204 l 438 535 l 786 535 l 786 204 l 908 204 l 908 896 z "},"I":{"ha":1224,"x_min":57,"x_max":1168,"o":"m 1168 1111 l 1168 0 l 57 0 l 57 1111 l 1168 1111 m 785 893 l 439 893 l 439 771 l 550 771 l 550 325 l 439 325 l 439 201 l 785 201 l 785 325 l 674 325 l 674 771 l 785 771 l 785 893 z "},"J":{"ha":1224,"x_min":57,"x_max":1168,"o":"m 1168 1111 l 1168 0 l 57 0 l 57 1111 l 1168 1111 m 663 326 l 444 326 l 444 204 l 663 204 l 663 326 m 785 896 l 439 896 l 439 772 l 663 772 l 663 326 l 785 326 l 785 772 l 785 785 l 785 896 z "},"K":{"ha":1224,"x_min":57,"x_max":1168,"o":"m 1168 1111 l 1168 0 l 57 0 l 57 1111 l 1168 1111 m 907 893 l 785 893 l 785 657 l 439 657 l 439 896 l 317 896 l 317 204 l 439 204 l 439 535 l 785 535 l 785 204 l 907 204 l 907 535 l 785 535 l 785 657 l 907 657 l 907 893 z "},"L":{"ha":1224,"x_min":57,"x_max":1168,"o":"m 1168 1111 l 1168 0 l 57 0 l 57 1111 l 1168 1111 m 851 332 l 503 332 l 503 901 l 381 901 l 381 326 l 503 326 l 503 210 l 851 210 l 851 332 z "},"M":{"ha":1224,"x_min":57,"x_max":1168,"o":"m 1168 1111 l 1168 0 l 57 0 l 57 1111 l 1168 1111 m 439 806 l 317 806 l 317 236 l 439 236 l 439 806 m 785 928 l 674 928 l 674 806 l 550 806 l 550 928 l 439 928 l 439 806 l 550 806 l 550 236 l 674 236 l 674 806 l 785 806 l 785 928 m 910 806 l 786 806 l 786 236 l 910 236 l 910 806 z "},"N":{"ha":1224,"x_min":57,"x_max":1168,"o":"m 1168 1111 l 1168 0 l 57 0 l 57 1111 l 1168 1111 m 438 768 l 315 768 l 315 200 l 438 200 l 438 768 m 783 322 l 672 322 l 672 768 l 550 768 l 550 892 l 439 892 l 439 768 l 550 768 l 550 317 l 672 317 l 672 200 l 783 200 l 783 322 m 908 892 l 786 892 l 786 322 l 908 322 l 908 892 z "},"O":{"ha":1224,"x_min":57,"x_max":1168,"o":"m 761 769 l 761 324 l 413 324 l 413 769 l 761 769 m 1168 1111 l 1168 0 l 57 0 l 57 1111 l 1168 1111 m 883 769 l 761 769 l 761 892 l 413 892 l 413 769 l 290 769 l 290 324 l 413 324 l 413 200 l 761 200 l 761 324 l 883 324 l 883 769 z "},"P":{"ha":1224,"x_min":57,"x_max":1168,"o":"m 1168 1111 l 1168 0 l 57 0 l 57 1111 l 1168 1111 m 907 767 l 785 767 l 785 889 l 439 889 l 431 889 l 317 889 l 317 197 l 439 197 l 439 529 l 785 529 l 785 651 l 907 651 l 907 767 m 439 767 l 785 767 l 785 651 l 439 651 l 439 767 z "},"Q":{"ha":1224,"x_min":57,"x_max":1168,"o":"m 1168 1111 l 1168 0 l 57 0 l 57 1111 l 1168 1111 m 394 781 l 633 781 l 633 904 l 394 904 l 394 781 m 953 335 l 756 335 l 756 781 l 633 781 l 633 335 l 393 335 l 393 781 l 271 781 l 271 335 l 393 335 l 393 213 l 633 213 l 724 213 l 756 213 l 953 213 l 953 335 z "},"R":{"ha":1224,"x_min":57,"x_max":1168,"o":"m 439 769 l 785 769 l 785 654 l 439 654 l 439 769 m 1168 1111 l 1168 0 l 57 0 l 57 1111 l 1168 1111 m 907 769 l 785 769 l 785 892 l 439 892 l 431 892 l 317 892 l 317 200 l 439 200 l 439 532 l 785 532 l 785 197 l 907 197 l 907 532 l 785 532 l 785 654 l 907 654 l 907 769 z "},"S":{"ha":1224,"x_min":57,"x_max":1168,"o":"m 1168 1111 l 1168 0 l 57 0 l 57 1111 l 1168 1111 m 904 532 l 782 532 l 782 654 l 436 654 l 436 769 l 313 769 l 313 654 l 428 654 l 428 532 l 782 532 l 782 324 l 313 324 l 313 200 l 782 200 l 782 324 l 904 324 l 904 532 m 904 892 l 436 892 l 436 769 l 904 769 l 904 892 z "},"T":{"ha":1224,"x_min":57,"x_max":1168,"o":"m 1168 1111 l 1168 0 l 57 0 l 57 1111 l 1168 1111 m 854 892 l 369 892 l 369 769 l 550 769 l 550 197 l 674 197 l 674 769 l 854 769 l 854 892 z "},"U":{"ha":1224,"x_min":57,"x_max":1168,"o":"m 1168 1111 l 1168 0 l 57 0 l 57 1111 l 1168 1111 m 908 903 l 786 903 l 786 333 l 438 333 l 438 903 l 315 903 l 315 333 l 438 333 l 438 211 l 786 211 l 786 333 l 908 333 l 908 903 z "},"V":{"ha":1224,"x_min":57,"x_max":1168,"o":"m 1168 1111 l 1168 0 l 57 0 l 57 1111 l 1168 1111 m 918 904 l 794 904 l 794 481 l 672 481 l 672 333 l 551 333 l 551 479 l 429 479 l 429 903 l 307 903 l 307 479 l 429 479 l 429 329 l 551 329 l 551 211 l 672 211 l 672 332 l 794 332 l 794 481 l 918 481 l 918 904 z "},"W":{"ha":1224,"x_min":57,"x_max":1168,"o":"m 1168 1111 l 1168 0 l 57 0 l 57 1111 l 1168 1111 m 438 903 l 314 903 l 314 333 l 438 333 l 438 903 m 785 333 l 674 333 l 674 903 l 550 903 l 550 333 l 439 333 l 439 211 l 550 211 l 550 333 l 674 333 l 674 211 l 785 211 l 785 333 m 908 903 l 785 903 l 785 333 l 908 333 l 908 903 z "},"X":{"ha":1224,"x_min":57,"x_max":1168,"o":"m 1168 1111 l 1168 0 l 57 0 l 57 1111 l 1168 1111 m 328 767 l 439 767 l 439 890 l 328 890 l 328 767 m 896 324 l 785 324 l 785 446 l 674 446 l 674 646 l 785 646 l 785 769 l 674 769 l 674 649 l 550 649 l 550 767 l 439 767 l 439 644 l 550 644 l 550 444 l 439 444 l 439 321 l 328 321 l 328 199 l 439 199 l 439 321 l 550 321 l 550 444 l 674 444 l 674 324 l 785 324 l 785 200 l 896 200 l 896 324 m 896 892 l 785 892 l 785 769 l 896 769 l 896 892 z "},"Y":{"ha":1224,"x_min":57,"x_max":1168,"o":"m 1168 1111 l 1168 0 l 57 0 l 57 1111 l 1168 1111 m 878 910 l 756 910 l 756 674 l 458 674 l 458 910 l 336 910 l 336 674 l 458 674 l 458 551 l 546 551 l 546 219 l 668 219 l 668 551 l 756 551 l 756 674 l 878 674 l 878 910 z "},"Z":{"ha":1224,"x_min":57,"x_max":1168,"o":"m 1168 1111 l 1168 0 l 57 0 l 57 1111 l 1168 1111 m 907 910 l 315 910 l 315 788 l 785 788 l 785 672 l 613 672 l 613 557 l 439 557 l 439 442 l 315 442 l 315 340 l 315 326 l 315 218 l 907 218 l 907 340 l 439 340 l 439 442 l 613 442 l 613 557 l 785 557 l 785 672 l 907 672 l 907 788 l 907 803 l 907 910 z "},"[":{"ha":361,"x_min":65,"x_max":296,"o":"m 186 911 l 186 200 l 296 200 l 296 79 l 65 79 l 65 1032 l 296 1032 l 296 911 l 186 911 z "},"\\":{"ha":497,"x_min":78,"x_max":419,"o":"m 188 1000 l 188 879 l 78 879 l 78 1000 l 188 1000 m 310 232 l 188 232 l 188 879 l 310 879 l 310 232 m 419 232 l 419 111 l 310 111 l 310 232 l 419 232 z "},"]":{"ha":382,"x_min":75,"x_max":307,"o":"m 75 911 l 75 1032 l 307 1032 l 307 79 l 75 79 l 75 200 l 186 200 l 186 911 l 75 911 z "},"^":{"ha":701,"x_min":69,"x_max":632,"o":"m 290 992 l 411 992 l 411 861 l 521 861 l 521 739 l 411 739 l 411 858 l 290 858 l 290 992 m 521 739 l 632 739 l 632 618 l 521 618 l 521 739 m 181 858 l 290 858 l 290 738 l 181 738 l 181 858 m 69 738 l 181 738 l 181 617 l 69 617 l 69 738 z "},"_":{"ha":838,"x_min":63,"x_max":775,"o":"m 775 115 l 63 115 l 63 236 l 775 236 l 775 115 z "},"`":{"ha":357,"x_min":63,"x_max":294,"o":"m 63 793 l 183 793 l 183 679 l 63 679 l 63 793 m 294 914 l 294 793 l 183 793 l 183 914 l 294 914 z "},"a":{"ha":728,"x_min":71,"x_max":657,"o":"m 657 781 l 657 219 l 536 219 l 536 546 l 192 546 l 192 219 l 71 219 l 71 781 l 192 781 l 192 667 l 536 667 l 536 781 l 657 781 m 533 781 l 192 781 l 192 903 l 533 903 l 533 781 z "},"b":{"ha":722,"x_min":63,"x_max":646,"o":"m 525 667 l 525 546 l 646 546 l 646 340 l 525 340 l 525 546 l 183 546 l 183 340 l 525 340 l 525 219 l 183 219 l 169 219 l 63 219 l 63 903 l 175 903 l 183 903 l 525 903 l 525 781 l 646 781 l 646 667 l 525 667 m 525 667 l 525 781 l 183 781 l 183 667 l 525 667 z "},"c":{"ha":601,"x_min":69,"x_max":532,"o":"m 190 776 l 190 335 l 69 335 l 69 776 l 190 776 m 190 214 l 190 335 l 532 335 l 532 214 l 190 214 m 532 776 l 190 776 l 190 897 l 532 897 l 532 776 z "},"d":{"ha":707,"x_min":60,"x_max":647,"o":"m 647 776 l 647 335 l 525 335 l 525 776 l 647 776 m 182 335 l 525 335 l 525 214 l 182 214 l 169 214 l 60 214 l 60 897 l 157 897 l 182 897 l 525 897 l 525 776 l 182 776 l 182 335 z "},"e":{"ha":592,"x_min":64,"x_max":528,"o":"m 186 776 l 186 663 l 528 663 l 528 540 l 186 540 l 186 335 l 64 335 l 64 776 l 186 776 m 186 214 l 186 335 l 528 335 l 528 214 l 186 214 m 528 776 l 186 776 l 186 897 l 528 897 l 528 776 z "},"f":{"ha":597,"x_min":67,"x_max":531,"o":"m 189 663 l 531 663 l 531 540 l 189 540 l 189 214 l 67 214 l 67 775 l 189 775 l 189 663 m 531 897 l 531 775 l 189 775 l 189 897 l 531 897 z "},"g":{"ha":717,"x_min":67,"x_max":650,"o":"m 188 778 l 188 338 l 67 338 l 67 778 l 188 778 m 188 338 l 529 338 l 529 215 l 188 215 l 188 338 m 590 543 l 650 543 l 650 338 l 529 338 l 529 421 l 274 421 l 274 543 l 529 543 l 590 543 m 650 778 l 650 664 l 529 664 l 529 778 l 188 778 l 188 899 l 529 899 l 529 778 l 650 778 z "},"h":{"ha":717,"x_min":65,"x_max":651,"o":"m 651 899 l 651 215 l 531 215 l 531 543 l 186 543 l 186 215 l 65 215 l 65 899 l 186 899 l 186 664 l 531 664 l 531 899 l 651 899 z "},"i":{"ha":467,"x_min":63,"x_max":404,"o":"m 294 771 l 294 331 l 404 331 l 404 208 l 63 208 l 63 331 l 172 331 l 172 771 l 63 771 l 63 892 l 404 892 l 404 771 l 294 771 z "},"j":{"ha":471,"x_min":65,"x_max":406,"o":"m 69 332 l 285 332 l 285 211 l 69 211 l 69 332 m 406 894 l 406 785 l 406 772 l 406 332 l 285 332 l 285 772 l 65 772 l 65 894 l 406 894 z "},"k":{"ha":711,"x_min":64,"x_max":647,"o":"m 526 654 l 526 532 l 647 532 l 647 206 l 526 206 l 526 532 l 185 532 l 185 206 l 64 206 l 64 889 l 185 889 l 185 654 l 526 654 l 526 886 l 647 886 l 647 654 l 526 654 z "},"l":{"ha":601,"x_min":68,"x_max":533,"o":"m 533 333 l 533 211 l 189 211 l 189 326 l 68 326 l 68 894 l 189 894 l 189 333 l 533 333 z "},"m":{"ha":722,"x_min":68,"x_max":654,"o":"m 300 769 l 421 769 l 421 207 l 300 207 l 300 769 m 654 769 l 654 207 l 533 207 l 533 769 l 654 769 m 68 769 l 189 769 l 189 207 l 68 207 l 68 769 m 421 890 l 531 890 l 531 769 l 421 769 l 421 890 m 300 890 l 300 769 l 189 769 l 189 890 l 300 890 z "},"n":{"ha":696,"x_min":54,"x_max":642,"o":"m 408 329 l 518 329 l 518 207 l 408 207 l 408 324 l 286 324 l 286 769 l 408 769 l 408 329 m 642 890 l 642 329 l 519 329 l 519 890 l 642 890 m 54 769 l 176 769 l 176 207 l 54 207 l 54 769 m 286 890 l 286 769 l 176 769 l 176 890 l 286 890 z "},"o":{"ha":707,"x_min":60,"x_max":647,"o":"m 647 772 l 647 332 l 525 332 l 525 772 l 647 772 m 182 772 l 182 332 l 60 332 l 60 772 l 182 772 m 182 332 l 525 332 l 525 211 l 182 211 l 182 332 m 525 772 l 182 772 l 182 893 l 525 893 l 525 772 z "},"p":{"ha":696,"x_min":56,"x_max":640,"o":"m 640 769 l 640 656 l 519 656 l 519 535 l 178 535 l 178 207 l 56 207 l 56 890 l 169 890 l 178 890 l 519 890 l 519 769 l 640 769 m 518 656 l 518 769 l 178 769 l 178 656 l 518 656 z "},"q":{"ha":796,"x_min":61,"x_max":735,"o":"m 182 771 l 182 329 l 61 329 l 61 771 l 182 771 m 735 329 l 735 208 l 540 208 l 508 208 l 419 208 l 182 208 l 182 329 l 419 329 l 419 771 l 540 771 l 540 329 l 735 329 m 419 771 l 182 771 l 182 892 l 419 892 l 419 771 z "},"r":{"ha":717,"x_min":67,"x_max":650,"o":"m 529 665 l 529 543 l 650 543 l 650 214 l 529 214 l 529 543 l 188 543 l 188 376 l 188 217 l 188 214 l 67 214 l 67 217 l 67 376 l 67 900 l 179 900 l 188 900 l 529 900 l 529 778 l 650 778 l 650 665 l 529 665 m 529 778 l 188 778 l 188 665 l 529 665 l 529 778 z "},"s":{"ha":738,"x_min":76,"x_max":661,"o":"m 540 540 l 661 540 l 661 335 l 540 335 l 540 213 l 76 213 l 76 335 l 540 335 l 540 540 l 189 540 l 189 661 l 76 661 l 76 775 l 197 775 l 197 661 l 540 661 l 540 540 m 661 896 l 661 775 l 199 775 l 199 896 l 661 896 z "},"t":{"ha":613,"x_min":67,"x_max":546,"o":"m 546 775 l 367 775 l 367 210 l 246 210 l 246 775 l 67 775 l 67 896 l 546 896 l 546 775 z "},"u":{"ha":701,"x_min":57,"x_max":644,"o":"m 644 896 l 644 335 l 522 335 l 522 896 l 644 896 m 179 896 l 179 335 l 57 335 l 57 896 l 179 896 m 179 335 l 522 335 l 522 213 l 179 213 l 179 335 z "},"v":{"ha":728,"x_min":63,"x_max":665,"o":"m 424 479 l 544 479 l 544 332 l 424 332 l 424 213 l 304 213 l 304 331 l 183 331 l 183 478 l 304 478 l 304 335 l 424 335 l 424 479 m 665 897 l 665 479 l 544 479 l 544 897 l 665 897 m 183 896 l 183 478 l 63 478 l 63 896 l 183 896 z "},"w":{"ha":701,"x_min":57,"x_max":644,"o":"m 413 896 l 413 335 l 290 335 l 290 896 l 413 896 m 57 896 l 179 896 l 179 335 l 57 335 l 57 896 m 644 896 l 644 335 l 522 335 l 522 896 l 644 896 m 181 335 l 290 335 l 290 213 l 181 213 l 181 335 m 413 335 l 522 335 l 522 213 l 413 213 l 413 335 z "},"x":{"ha":690,"x_min":64,"x_max":626,"o":"m 626 886 l 626 764 l 515 764 l 515 886 l 626 886 m 406 324 l 406 443 l 285 443 l 285 642 l 175 642 l 175 763 l 285 763 l 285 644 l 406 644 l 406 764 l 515 764 l 515 643 l 406 643 l 406 446 l 515 446 l 515 324 l 406 324 m 515 324 l 626 324 l 626 203 l 515 203 l 515 324 m 175 763 l 64 763 l 64 883 l 175 883 l 175 763 m 175 443 l 285 443 l 285 322 l 175 322 l 175 443 m 64 322 l 175 322 l 175 201 l 64 201 l 64 322 z "},"y":{"ha":669,"x_min":67,"x_max":603,"o":"m 189 897 l 189 665 l 67 665 l 67 897 l 189 897 m 603 665 l 482 665 l 482 543 l 396 543 l 396 217 l 274 217 l 274 543 l 189 543 l 189 665 l 481 665 l 481 897 l 603 897 l 603 665 z "},"z":{"ha":717,"x_min":67,"x_max":650,"o":"m 67 442 l 188 442 l 188 343 l 650 343 l 650 221 l 67 221 l 67 329 l 67 343 l 67 442 m 188 556 l 358 556 l 358 442 l 188 442 l 188 556 m 358 669 l 529 669 l 529 556 l 358 556 l 358 669 m 650 904 l 650 799 l 650 783 l 650 669 l 529 669 l 529 783 l 67 783 l 67 904 l 650 904 z "},"{":{"ha":513,"x_min":68,"x_max":444,"o":"m 444 185 l 444 75 l 201 75 l 201 493 l 322 493 l 322 185 l 322 185 l 444 185 m 201 614 l 201 493 l 68 493 l 68 614 l 201 614 m 322 614 l 201 614 l 201 1029 l 442 1029 l 442 919 l 322 919 l 322 919 l 322 614 z "},"|":{"ha":272,"x_min":69,"x_max":203,"o":"m 203 36 l 69 36 l 69 1072 l 203 1072 l 203 36 z "},"}":{"ha":539,"x_min":82,"x_max":457,"o":"m 203 919 l 203 919 l 83 919 l 83 1029 l 325 1029 l 325 614 l 203 614 l 203 919 m 457 614 l 457 493 l 325 493 l 325 614 l 457 614 m 203 185 l 203 185 l 203 493 l 325 493 l 325 75 l 82 75 l 82 185 l 203 185 z "},"~":{"ha":696,"x_min":67,"x_max":629,"o":"m 629 740 l 629 618 l 519 618 l 519 740 l 629 740 m 176 497 l 176 376 l 67 376 l 67 497 l 176 497 m 519 497 l 176 497 l 176 618 l 519 618 l 519 497 z "},"“":{"ha":400,"x_min":0,"x_max":0,"o":""},"¡":{"ha":400,"x_min":0,"x_max":0,"o":""},"£":{"ha":725,"x_min":71,"x_max":654,"o":"m 313 751 l 313 639 l 654 639 l 654 517 l 313 517 l 313 311 l 192 311 l 192 190 l 71 190 l 71 314 l 192 314 l 192 517 l 71 517 l 71 640 l 192 640 l 192 751 l 313 751 m 313 190 l 313 311 l 654 311 l 654 190 l 313 190 m 654 751 l 313 751 l 313 874 l 654 874 l 654 751 z "}}}
